<?xml version="1.0" encoding="UTF-8"?>
<svg id="Calque_1" xmlns="http://www.w3.org/2000/svg" version="1.1" viewBox="0 0 1024 1024">
  <!-- Generator: Adobe Illustrator 29.8.1, SVG Export Plug-In . SVG Version: 2.1.1 Build 2)  -->
  <defs>
    <style>
      .st0 {
        fill: #fff;
      }
    </style>
  </defs>
  <path d="M674.01,494c7.71-3.45,14.79-9.06,22.32-13.17,47.41-25.85,134.45-42.16,155.39,24.95,20.16,64.62-47.48,126.87-101.3,149.2,1.59,6.66,4.35,12.8,5.44,19.65,6.48,40.61-22.69,75.32-64.35,73.35-8.68-.41-16.87-3.73-25.38-4.86-7.62,23.12-22.57,42.11-38.62,59.89-7.9,8.75-19.18,16.28-23.29,27.71-6.31,17.59,2.04,34.73,3.76,52.27-17.63-14.98-36.17-29.38-57.31-39.18-4.44-2.06-33.62-13.96-35.95-13.64-1.64.23-4.07,2.26-6.18,2.86-11.96,3.37-22.35,5.01-34.78,2.7-2.6-.48-11.97-3.03-13.75-4.26-1.61-1.1-.65-1.05-.18-2.14,2.23-5.24,7.36-11.2,10.18-16.33l-27.68-17.89-12.3,10.87c-5.96-11.46-9.87-21.76-11.89-34.62-.4-2.52.34-5.37-.32-7.68-.73-2.51-12.16-12.28-12.8-17.27-1.26-.81-17.06,3.27-20.52,3.55-23.52,1.86-51.14-1.58-64.02-23.95-11.36-19.74-6.12-41.72.54-62.02-44.9-15.42-90.2-47.41-109.18-92.33-13.97-33.06-13.84-75.94,17.86-98.49,29.05-20.67,64.16-16.68,95.31-3.19,4.22-47.71,30.42-91.52,67.53-120.97,3.29-2.61,15.12-9.52,16.54-11.46,1.07-1.45,1.01-2.24.89-3.93-.79-11.39-10.8-37.26-15.78-48.32-18.22-40.49-38.8-57.07-77.82-76.18-21.77-10.66-92.02-33.31-64.33-68.62,26.07-33.24,81.36,13.64,101.49,34.46,40.44,41.84,66.34,96.04,73.5,154.01,37.21-15.2,80.61-18.75,119.54-8.23,2.45-.43,7-25.43,7.32-29.4,3.59-44.25-11.58-73.59-42.86-102.89-17.55-16.44-76.96-54.16-47.41-82.38,25.5-24.37,61.72,7.56,77.23,28.57,37.55,50.86,49.09,131.28,24.31,189.86,9.26,4.34,18.7,8.05,27.53,13.3,53.06,31.52,83.68,94.91,81.33,156.17v.03ZM653,495c2.7-70.77-38.27-137.38-109-154.51-105.36-25.51-196.41,41.77-200.99,150.01-3.06,72.14,42.41,105.77,106.77,122.2,24.47,6.25,74.28,11.31,96.57-1.86,2.49-1.47,24.22-24.69,25.17-26.92-3.07-20.62-.58-41.21,11.07-58.85,15.61-23.63,42.54-34.28,70.41-30.09v.02ZM653,715.99c8.5,2.71,16.25,7.38,24.99,9.52,54.35,13.32,74.93-42.08,43.03-80.02,44.22-16.95,99.57-51.09,111.68-100.29,13.89-56.44-35.2-73.16-81.52-63.52-20.01,4.16-71.58,27.21-83.62,43.38-5.48,7.37-8.44,19.57-13.34,27.6l5.28,11.33c1.75,1.64,23.66,5.64,25.49,4.52,6.75-8.24,12.01-21.64,18.55-29.47,1.25-1.5,2.84-2.78,4.86-2.97,2.54.6,8.32,17.69,9.1,20.93,8.83,36.57-7.63,67.79-40.01,85-.05,17.01-3.86,32.86-10.64,48.36-3.92,8.97-9.58,16.89-13.86,25.63h.01ZM322.94,492.09c-50.23-29.49-114.38-8.55-96.43,58.91,12.5,46.98,59.1,78.44,102.04,95.01l37.46-49.48c-10.24-7.89-18.7-17.62-25.42-28.61-13.73-22.47-19.85-49.65-17.65-75.83h0ZM646.5,515h-16c-1.38,0-9.82,3.38-11.71,4.29-21.22,10.22-29.81,33.68-27.77,56.19.36,3.96,3.74,12.77,2.5,15.48l-65.5,70.53,51.67,24.33,57.84-57.81c31.28,2.71,62.17-19.07,61.47-52.02-3.89,3.67-9.55,10.91-15.46,11.02-3.51.07-27.83-5.08-31.55-6.5-5.9-2.25-15.72-23.11-19.94-29.01l15.57-34.44-1.11-2.07h-.01ZM523,638.01c-42.1,6-86.29-4.2-124.36-22.15-2.33-1.1-13.42-8.11-14.64-6.85-1.47,26.6,2.11,52.97,11.01,78.01l16.95-4.54c17.07-32.8,62.63-32.2,94.34-26.63l16.69-17.83h.01ZM489,815.99c31.27-1.27,53.27-26.53,52.04-57.53-.22-5.6-4.03-9.18,1.95-12.96-7.19-5.08-14.84-11.14-22.29-15.69-8-4.89-24.18-14.34-32.46-17.54-6.62-2.56-17.26,3.5-23.15,7.31-15.45,9.99-26.8,31.07-27.08,49.41,1.92.42,2.39-.98,3.4-2.09,5.54-6.1,10.82-12.39,17.21-17.67,1.4-.27,24.78,5.93,27.63,7.02,4.98,1.9,14.58,16.79,17.98,22.02,1.18,1.82,4.75,6.25,4.58,8.06l-19.8,29.65h-.01ZM562,755v14.5c0,2.46-2.78,12.29-3.72,15.28-1.31,4.19-3.36,8.28-5.28,12.21,37.74-7.51,76.84-27.42,94.03-63.46-7.03-5.47-10.57,1.82-16.13,5.86-21.28,15.47-42.28,23.81-68.9,15.6h0ZM480.91,794.94l4.92-9.28c-5.3-10.68-10.36-16.24-22.88-17.19l-7.94,11.02,25.9,15.44h0Z"/>
  <path d="M528.74,412.24c33.79-5.42,43.77,40.98,41.14,66.14-2.4,22.91-22.19,52.45-48.56,42.81-39.4-14.4-31.96-102.62,7.43-108.94h-.01ZM540.65,433.3c-11.84.66-14.22,26.76-1.15,26.76s13.34-27.44,1.15-26.76Z"/>
  <path d="M398.73,412.22c26.8-5.49,34.46,28.17,33.26,48.26-1.07,17.95-12.88,51.53-33.57,54.42-28.4,3.97-32.13-33.21-30.4-53.4,1.37-15.96,13-45.66,30.71-49.29h0ZM410.65,456.65c9.51-9.18,1.11-30.21-9.08-20.58-8.85,8.37-.78,30.11,9.08,20.58Z"/>
  <path d="M426.35,551.65c-3.04-2.98-14.45-17.82-6.68-20.5,4.77-1.64,7.37,2.24,10.95,3.72,13.75,5.69,21.16,7.77,35.91,3.15,6.43-2.01,19.82-11.71,25.02-7.08,6.52,5.8-3.86,16.8-8.54,20.56-16.2,13.03-41.06,15.44-56.66.14h0Z"/>
  <path class="st0" d="M540.65,433.3c12.18-.68,11.71,26.76-1.15,26.76s-10.68-26.1,1.15-26.76Z"/>
  <path class="st0" d="M410.65,456.65c-9.86,9.53-17.93-12.21-9.08-20.58,10.19-9.63,18.59,11.4,9.08,20.58Z"/>
</svg>